<svg version="1" xmlns="http://www.w3.org/2000/svg" width="682.667" height="682.667" viewBox="0 0 512.000000 512.000000"><path d="M242.6 15.7c-.1.1-3.6.5-7.8.8-7.3.5-12.2 1.1-17.8 2.1-1.4.2-4.1.7-6 1-1.9.2-5.3.9-7.5 1.5s-4.7 1.2-5.5 1.4c-3.5.7-10.6 2.6-12.5 3.4-1.1.5-5.1 1.9-8.9 3.1-3.7 1.2-8.4 2.8-10.2 3.6-1.9.8-3.6 1.4-3.9 1.4-1.5-.1-30.8 15.7-38.2 20.7-16 10.5-24.3 17.3-38.8 31.8-12.2 12.2-27.1 30.5-33 40.6-8.2 14.1-15.7 27.9-15.1 27.9.3 0-.9 2.6-2.5 5.7-1.6 3.2-2.9 6.4-2.9 7.1 0 .7-.4 2-1 3-.8 1.5-3.5 8.5-4.4 11.7-.1.5-.8 3-1.5 5.5-.8 2.5-1.5 5.2-1.6 6-.2.8-.4 1.5-.5 1.5-.2 0-.8 2.3-1.5 6-.3 1.6-.8 4.1-1.1 5.5-1 4.4-1.4 6.4-1.9 10-.3 1.9-.7 4.4-1 5.5-.9 4.6-1.9 20.9-1.9 34 0 25.3 2.8 45.2 9.5 68 3.8 12.7 13.4 36.4 15.3 37.7.6.4.8.8.4.8s.9 2.7 2.8 6.1c1.8 3.3 3.4 6.3 3.4 6.5 0 .5 9.3 15.1 11.2 17.6.7.9 2 2.6 2.8 3.9 9.8 14.4 32.4 37.5 48.6 49.7 6 4.5 11.4 8.6 12.1 9.2.7.5 1.5 1 1.7 1 .3 0 3.6 1.9 7.3 4.3 8.7 5.5 22.5 12.6 33.3 17 8.5 3.4 16.1 6.1 17 5.9.3 0 1 .3 1.5.8 1.3 1 28.6 7.7 35 8.5 2.8.3 6.4.8 8 1 17.3 2.3 48.5 2.3 60.5.1 1.4-.3 4.3-.7 6.5-1 3.6-.5 11.9-1.9 17-3.1 18.5-4 49.3-15.9 62.6-24.1l3.6-2.3 7.4 2c9.4 2.5 9 2.4 17.9 4.8 4.1 1 10.2 2.7 13.5 3.6 3.3.9 7.1 1.8 8.4 2.1 1.3.3 3.2.9 4.3 1.5 1 .5 1.8.8 1.8.5 0-.3 1.5 0 3.3.6 1.7.5 6.4 1.8 10.2 2.8 3.9 1 12.2 3.2 18.5 4.9 6.3 1.7 12.2 3.3 13 3.5.8.3 5.8 1.6 11.2 3 10.6 2.9 12.2 3.1 11.3 1.6-.3-.5-.8-1.8-1-2.7-.1-1-1.5-6.1-2.9-11.3-3.9-14.4-7.6-28.3-8.1-30.4-.2-1-.9-3.3-1.4-5-.6-1.7-1.2-4.2-1.5-5.6-.2-1.4-1.8-7.5-3.5-13.5-1.7-6.1-3.3-11.9-3.6-13-.2-1.1-1.8-7.2-3.5-13.5-4.6-16.7-5-18.3-5.5-20.4-.2-1-.7-2.1-.9-2.3-.3-.3 1.9-5.3 4.9-11.2 6.7-13.3 14.3-31.6 16.1-38.9.2-.9 1.5-5.8 2.8-10.7 2.7-10.3 3.8-15.6 6.1-32.2 2.1-14.2 2-48.1 0-57.7-.2-1.2-.7-4.1-1-6.6-.3-2.5-.7-5.4-.9-6.5-.2-1.1-1.2-5.6-2.1-10-2.3-11.2-10.4-35.3-15.6-46.6-15.6-33.8-37.7-62.8-65.4-85.6C396.9 60.9 397.1 61 396.1 61c-.5 0-1.1-.4-1.3-.9-.3-.8-12.7-9.2-17.8-12-34.8-19-65.6-28.7-101.5-31.7-7-.6-32.4-1.1-32.9-.7zm26.9 69.7c3.9.3 8.1.8 9.5 1 1.4.3 3.9.7 5.5.9 1.7.3 4.3.8 5.9 1.2 1.6.4 3.6.9 4.5.9 9.1 1 43.3 14.9 49.1 20.1.8.8 2 1.4 2.5 1.5.6 0 3.4 1.9 6.3 4 2.9 2.2 5.7 4 6.2 4 .4 0 1 .3 1.2.7.2.5 3.2 3.3 6.8 6.3 6 5.1 14.3 13.4 19 19 1.1 1.4 3 3.6 4.2 5 4 4.7 14.6 21.5 18.8 29.9 8.5 16.9 14.5 37 16.7 55.6 1 7.6.9 33.2 0 40.8-3.2 26.4-13 52.7-27.9 75-3.4 5.1-6.4 9.4-6.7 9.7-.3.3-3 3.3-6 6.8-2.9 3.5-7.8 8.6-10.9 11.5-3 2.9-6 5.7-6.7 6.4-2.5 2.4-18.7 14.3-19.5 14.3-.5 0-1.5.6-2.2 1.3-1.5 1.5-16.5 9.4-23.9 12.6-8.5 3.7-23 8.1-31.9 9.7-1.4.3-3.2.7-4 .9-9.1 2.7-52.7 2.7-60.2 0-.7-.2-2.6-.7-4.3-.9-4.9-.9-12.8-2.8-15-3.7-1.1-.4-3.8-1.3-6-1.9-8.8-2.6-31.5-13.5-38-18.3-.5-.4-4.6-3.4-9.1-6.7-8-5.9-23.9-20.9-30.1-28.5-8.8-10.8-18.7-27.2-25.1-41.5-4.5-10.1-10.5-30.7-11.6-40-2.4-18.8-2.4-39.5-.1-52.5 3-16.7 6.7-29.9 11.4-41 3.7-8.6 10.5-21.5 11.3-21.5.5 0 .8-.6.8-1.3 0-1.3 9.8-15.2 14.5-20.6 25.5-29.3 56.3-48.3 91.5-56.5 13.2-3.1 15.4-3.4 27-4.2 5.2-.4 9.6-.7 9.7-.8.3-.2 9.5.3 16.8.8z"/></svg>